<?xml version="1.0" encoding="UTF-8"?>
<svg id="Layer_1" xmlns="http://www.w3.org/2000/svg" version="1.1" viewBox="0 0 1000 1000">
  <!-- Generator: Adobe Illustrator 29.7.1, SVG Export Plug-In . SVG Version: 2.1.1 Build 8)  -->
  <path d="M866.4,325.5c-8.7,0-17.5-2.5-25.2-7.7l-288.1-192.1c-32.5-21.7-74.6-21.7-107.1,0l-288.1,192.1c-20.9,13.9-49.2,8.3-63.2-12.6-14-20.9-8.3-49.2,12.6-63.2L395.5,50c63.2-42.1,144.9-42.1,208.2,0l288.1,192.1c20.9,14,26.6,42.2,12.6,63.2-8.8,13.2-23.2,20.3-37.9,20.3Z"/>
  <path d="M499.5,308.2l321.7,214.5v368.6H177.8v-368.6l321.7-214.5M499.6,216.6c-17.6,0-34.6,5.1-49.2,14.9L126.2,447.6c-24.7,16.5-39.5,44-39.5,73.7v372.3c0,48.9,39.8,88.6,88.6,88.6h648.4c48.9,0,88.6-39.8,88.6-88.6v-372.3c0-29.7-14.8-57.3-39.5-73.7l-324.2-216.1c-14.6-9.7-31.6-14.9-49.2-14.9h0Z"/>
  <path d="M499.6,564.9c6.4,0,12.4,1.8,17.7,5.4l81.6,54.4c8.9,5.9,14.2,15.8,14.2,26.5,0,17.6-14.3,31.9-31.8,31.9h-163.3c-17.6,0-31.9-14.3-31.9-31.9s5.3-20.6,14.2-26.5l81.7-54.5c5.3-3.5,11.3-5.3,17.7-5.3M499.6,473.8c-24.4,0-47.9,7.1-68.2,20.6l-81.7,54.5c-34.3,22.8-54.7,61.1-54.7,102.3,0,67.8,55.2,123,123,123h163.3c67.8,0,122.9-55.2,122.9-123s-20.5-79.5-54.7-102.3l-81.7-54.4c-20.3-13.5-43.9-20.7-68.2-20.7h0Z"/>
</svg>